<?xml version="1.0" encoding="UTF-8"?><svg id="Layer_2" xmlns="http://www.w3.org/2000/svg" viewBox="0 0 307.01 315.65"><defs><style>.cls-1{fill:#f8dda0;}.cls-1,.cls-2,.cls-3{stroke-width:0px;}.cls-2{fill:#3a666e;}.cls-3{fill:#adc5d7;}</style></defs><g id="Layer_1-2"><path class="cls-2" d="m306.71,158.01c.26,22.01-.33,44.56-9.34,64.66-8.99,20.08-25.61,35.33-42.03,50.01-16.35,14.63-33.48,28.88-54.23,36.1-20.88,7.27-43.37,7.56-65.39,5.53-22.12-2.04-44.16-6.61-63.53-17.42-19.44-10.85-36.7-26.03-48.28-44.99-9.03-14.79-11.97-31.93-14.8-49.08h.01c11.68-9.87,32.81-25.64,54.67-38,21.94-12.41,45.43-22.1,64.24-22.1,24.13,0,48.84,2.64,71.46,5.31l.69.08,6.86.82c19.57,2.33,37.33,4.44,51.17,4.44,23.11,0,40.61-6.14,48.09-10.05.24,4.89.36,9.8.41,14.69Z"/><path class="cls-1" d="m295.89,93.83c7.12,15.5,9.56,32.42,10.41,49.49-7.48,3.91-24.98,10.05-48.09,10.05-13.84,0-31.6-2.11-51.17-4.44l-6.86-.82c-32.45-18.15-53.85-26.37-68.54-31.26-18.38-6.11-38.47-8.79-54.71-10.97h-.04c-3.07-.41-6-.8-8.75-1.2-2.78-.39-6.87-1.43-11.58-2.73-2.37-.65-4.99-1.39-7.74-2.17-2.67-.76-5.45-1.56-8.22-2.32-11.18-3.11-22.91-6.05-31.2-6.55,3.22-8.79,7.44-17.15,12.97-24.73,12.91-17.68,33.09-27.95,51.99-39.06C93.32,15.97,112.08,2.69,134,.56c21.85-2.13,42.84,7.15,63.5,14.58,20.18,7.27,40.03,15.32,56.76,28.7,17.14,13.7,32.48,30.08,41.63,49.99Z"/><path class="cls-3" d="m200.18,148.11l-.69-.08c-22.62-2.67-47.33-5.31-71.46-5.31-18.81,0-42.3,9.69-64.24,22.1-21.86,12.36-42.99,28.13-54.67,38h-.01c-.7-4.29-1.4-8.57-2.18-12.82-3.83-20.79-8.54-41.46-5.93-62.43,1.55-12.43,4.09-24.93,8.4-36.66,8.29.5,20.02,3.44,31.2,6.55,2.77.76,5.55,1.56,8.22,2.32,2.75.78,5.37,1.52,7.74,2.17,4.71,1.3,8.8,2.34,11.58,2.73,2.75.4,5.68.79,8.75,1.2h.04c16.24,2.18,36.33,4.86,54.71,10.97,14.69,4.89,36.09,13.11,68.54,31.26Z"/></g></svg>