<?xml version="1.0" encoding="UTF-8"?>
<svg id="Layer_2" xmlns="http://www.w3.org/2000/svg" viewBox="0 0 471.04 185.08">
    <defs>
        <style>
            .cls-1 {
                fill: #f8dda0;
            }

            .cls-1,
            .cls-2,
            .cls-3 {
                stroke-width: 0px;
            }

            .cls-2 {
                fill: #3a666e;
            }

            .cls-3 {
                fill: #adc5d7;
            }
        </style>
    </defs>
    <g id="Layer_1-2">
        <path class="cls-2"
            d="m237.73,58.74c.1,8.16-.12,16.52-3.46,23.97-3.33,7.44-9.49,13.1-15.58,18.54-6.06,5.42-12.41,10.71-20.11,13.38-7.74,2.7-16.08,2.8-24.24,2.05-8.2-.76-16.37-2.45-23.55-6.46-7.21-4.02-13.61-9.65-17.9-16.68-3.35-5.48-4.44-11.84-5.49-18.2h0c4.33-3.66,12.16-9.51,20.27-14.09,8.13-4.6,16.84-8.19,23.82-8.19,8.95,0,18.11.98,26.49,1.97l.26.03,2.54.3c7.26.86,13.84,1.65,18.97,1.65,8.57,0,15.06-2.28,17.83-3.73.09,1.81.13,3.63.15,5.45Z" />
        <path class="cls-1"
            d="m233.72,34.94c2.64,5.75,3.54,12.02,3.86,18.35-2.77,1.45-9.26,3.73-17.83,3.73-5.13,0-11.72-.78-18.97-1.65l-2.54-.3c-12.03-6.73-19.96-9.78-25.41-11.59-6.81-2.27-14.26-3.26-20.28-4.07h-.01c-1.14-.15-2.22-.3-3.24-.44-1.03-.14-2.55-.53-4.29-1.01-.88-.24-1.85-.52-2.87-.8-.99-.28-2.02-.58-3.05-.86-4.14-1.15-8.49-2.24-11.57-2.43,1.19-3.26,2.76-6.36,4.81-9.17,4.79-6.55,12.27-10.36,19.27-14.48,7.03-4.13,13.98-9.06,22.11-9.85,8.1-.79,15.88,2.65,23.54,5.41,7.48,2.7,14.84,5.68,21.04,10.64,6.35,5.08,12.04,11.15,15.43,18.53Z" />
        <path class="cls-3"
            d="m198.23,55.07l-.26-.03c-8.39-.99-17.55-1.97-26.49-1.97-6.97,0-15.68,3.59-23.82,8.19-8.1,4.58-15.94,10.43-20.27,14.09h0c-.26-1.59-.52-3.18-.81-4.75-1.42-7.71-3.17-15.37-2.2-23.15.57-4.61,1.52-9.24,3.11-13.59,3.07.19,7.42,1.28,11.57,2.43,1.03.28,2.06.58,3.05.86,1.02.29,1.99.56,2.87.8,1.75.48,3.26.87,4.29,1.01,1.02.15,2.11.29,3.24.44h.01c6.02.81,13.47,1.8,20.28,4.07,5.45,1.81,13.38,4.86,25.41,11.59Z" />
        <path class="cls-2"
            d="m0,5.66h49.29c11.78,0,22.19,2.25,31.23,6.74,9.04,4.49,16.07,10.83,21.08,18.99,5.01,8.16,7.52,17.67,7.52,28.52s-2.51,20.36-7.52,28.52c-5.01,8.16-12.04,14.49-21.08,18.99-9.04,4.49-19.45,6.74-31.23,6.74H0V5.66Zm48.05,87.88c10.85,0,19.5-3.02,25.96-9.07,6.46-6.04,9.69-14.23,9.69-24.57s-3.23-18.52-9.69-24.57c-6.46-6.04-15.11-9.07-25.96-9.07h-22.94v67.27h22.94Z" />
        <path class="cls-2"
            d="m280.78,108.81c-8.94-4.8-15.97-11.47-21.08-19.99-5.12-8.53-7.67-18.16-7.67-28.91s2.56-20.38,7.67-28.91c5.11-8.52,12.14-15.19,21.08-19.99,8.94-4.81,18.99-7.21,30.15-7.21,9.4,0,17.9,1.65,25.5,4.96,7.59,3.31,13.97,8.06,19.14,14.26l-16.12,14.88c-7.34-8.47-16.43-12.71-27.28-12.71-6.72,0-12.71,1.47-17.98,4.42-5.27,2.95-9.38,7.05-12.32,12.32-2.95,5.27-4.42,11.26-4.42,17.98s1.47,12.71,4.42,17.98c2.94,5.27,7.05,9.38,12.32,12.32,5.27,2.94,11.26,4.42,17.98,4.42,10.85,0,19.94-4.29,27.28-12.87l16.12,14.88c-5.17,6.3-11.57,11.11-19.22,14.42-7.65,3.31-16.17,4.96-25.58,4.96-11.06,0-21.06-2.4-29.99-7.21Z" />
        <path class="cls-2"
            d="m447.48,9.69c7.44,3.93,13.23,9.71,17.36,17.36,4.13,7.65,6.2,16.9,6.2,27.74v59.37h-25.11v-26.04h-49.6v26.04h-24.8v-59.37c0-10.85,2.07-20.1,6.2-27.74,4.13-7.65,9.92-13.43,17.36-17.36,7.44-3.93,16.17-5.89,26.2-5.89s18.75,1.96,26.19,5.89Zm-1.55,58.28v-15.5c0-8.99-2.22-15.78-6.67-20.38-4.44-4.6-10.49-6.9-18.13-6.9s-13.82,2.3-18.21,6.9c-4.39,4.6-6.59,11.39-6.59,20.38v15.5h49.6Z" />
        <path class="cls-2"
            d="m21.78,154.66c2.1.94,3.71,2.29,4.85,4.04,1.14,1.75,1.71,3.81,1.71,6.17s-.57,4.42-1.71,6.15c-1.14,1.74-2.75,3.08-4.85,4.02-2.1.94-4.57,1.41-7.41,1.41h-5.48v8.22H0v-31.44h14.37c2.84,0,5.31.47,7.41,1.42Zm-3.82,13.61c.93-.79,1.39-1.92,1.39-3.39s-.46-2.61-1.39-3.41c-.93-.81-2.31-1.21-4.13-1.21h-4.94v9.21h4.94c1.83,0,3.2-.4,4.13-1.19Z" />
        <path class="cls-2"
            d="m38.35,183.47c-2.1-1.08-3.74-2.57-4.92-4.49-1.18-1.92-1.77-4.09-1.77-6.51s.59-4.55,1.77-6.47c1.18-1.92,2.81-3.41,4.89-4.47,2.08-1.06,4.44-1.59,7.07-1.59s5,.53,7.1,1.59c2.09,1.06,3.73,2.54,4.89,4.45s1.75,4.06,1.75,6.49-.58,4.6-1.75,6.51-2.8,3.41-4.89,4.49c-2.1,1.08-4.46,1.62-7.1,1.62s-4.96-.54-7.05-1.62Zm10.73-6.71c.96-1.03,1.44-2.46,1.44-4.29s-.48-3.2-1.44-4.22c-.96-1.02-2.19-1.53-3.68-1.53s-2.72.51-3.68,1.53c-.96,1.02-1.44,2.42-1.44,4.22s.48,3.26,1.44,4.29c.96,1.03,2.19,1.55,3.68,1.55s2.72-.52,3.68-1.55Z" />
        <path class="cls-2"
            d="m75.6,160.77c1.39-.55,2.99-.83,4.78-.83v7.68c-.78-.09-1.42-.14-1.93-.14-1.83,0-3.26.49-4.29,1.48-1.03.99-1.55,2.5-1.55,4.54v11.18h-8.53v-24.34h8.13v2.92c.87-1.11,2-1.94,3.39-2.49Z" />
        <path class="cls-2"
            d="m137.89,162.63c1.78,1.8,2.67,4.51,2.67,8.13v13.92h-8.53v-12.53c0-1.71-.32-2.96-.97-3.77-.64-.81-1.55-1.21-2.72-1.21-1.29,0-2.32.45-3.1,1.35-.78.9-1.17,2.26-1.17,4.09v12.08h-8.53v-12.53c0-3.32-1.23-4.98-3.68-4.98-1.32,0-2.37.45-3.14,1.35-.78.9-1.17,2.26-1.17,4.09v12.08h-8.53v-24.34h8.13v2.56c.9-.99,1.97-1.73,3.21-2.22,1.24-.49,2.6-.74,4.06-.74,1.71,0,3.23.31,4.58.94,1.35.63,2.44,1.59,3.28,2.87.96-1.23,2.17-2.17,3.64-2.83,1.47-.66,3.07-.99,4.81-.99,2.99,0,5.38.9,7.16,2.69Z" />
        <path class="cls-2"
            d="m173.03,160.34v24.34h-8.13v-2.42c-1.59,1.89-3.98,2.83-7.19,2.83-2.22,0-4.23-.52-6.04-1.55-1.81-1.03-3.25-2.51-4.31-4.42-1.06-1.92-1.59-4.13-1.59-6.65s.53-4.72,1.59-6.62c1.06-1.9,2.5-3.36,4.31-4.38,1.81-1.02,3.82-1.53,6.04-1.53,2.87,0,5.13.84,6.78,2.51v-2.11h8.53Zm-9.83,16.41c.96-1.03,1.44-2.46,1.44-4.29s-.48-3.2-1.44-4.22c-.96-1.02-2.19-1.53-3.68-1.53s-2.72.51-3.68,1.53c-.96,1.02-1.44,2.42-1.44,4.22s.48,3.26,1.44,4.29c.96,1.03,2.19,1.55,3.68,1.55s2.72-.52,3.68-1.55Z" />
        <path class="cls-2"
            d="m179.99,156.34c-.96-.87-1.44-1.95-1.44-3.23s.48-2.37,1.44-3.23c.96-.87,2.22-1.3,3.77-1.3s2.81.41,3.77,1.23c.96.82,1.44,1.88,1.44,3.17s-.48,2.46-1.44,3.34c-.96.88-2.22,1.33-3.77,1.33s-2.81-.43-3.77-1.3Zm-.49,4h8.53v24.34h-8.53v-24.34Z" />
        <path class="cls-2"
            d="m197.37,184.39c-1.98-.46-3.56-1.07-4.76-1.82l2.56-5.84c1.11.69,2.43,1.23,3.95,1.64,1.53.4,3.04.61,4.54.61,1.38,0,2.36-.14,2.94-.43s.88-.7.88-1.23-.35-.92-1.06-1.15c-.7-.23-1.82-.44-3.35-.65-1.95-.24-3.6-.55-4.96-.94-1.36-.39-2.54-1.11-3.53-2.16-.99-1.05-1.48-2.51-1.48-4.4,0-1.56.46-2.94,1.39-4.15.93-1.21,2.28-2.17,4.06-2.87,1.78-.7,3.91-1.06,6.4-1.06,1.77,0,3.52.18,5.25.54,1.74.36,3.19.87,4.36,1.53l-2.56,5.79c-2.16-1.2-4.49-1.8-7.01-1.8-1.35,0-2.34.16-2.96.47-.63.31-.94.73-.94,1.23,0,.57.34.96,1.03,1.19.69.22,1.83.46,3.41.7,2.01.3,3.67.64,4.98,1.03,1.32.39,2.46,1.1,3.44,2.13.97,1.03,1.46,2.48,1.46,4.33,0,1.53-.46,2.9-1.39,4.11-.93,1.21-2.3,2.16-4.11,2.85-1.81.69-3.99,1.03-6.53,1.03-2.04,0-4.04-.23-6.02-.7Z" />
        <path class="cls-2"
            d="m236.64,182.77c-1.66-1.54-2.49-3.75-2.49-6.62v-24.79h8.53v24.34c0,.9.23,1.59.7,2.07s1.11.72,1.95.72c.69,0,1.33-.15,1.93-.45l.36,6.42c-1.29.42-2.62.63-4,.63-2.99,0-5.32-.77-6.98-2.31Z" />
        <path class="cls-2"
            d="m252.16,156.34c-.96-.87-1.44-1.95-1.44-3.23s.48-2.37,1.44-3.23c.96-.87,2.22-1.3,3.77-1.3s2.81.41,3.77,1.23,1.44,1.88,1.44,3.17-.48,2.46-1.44,3.34c-.96.88-2.22,1.33-3.77,1.33s-2.81-.43-3.77-1.3Zm-.49,4h8.53v24.34h-8.53v-24.34Z" />
        <path class="cls-2"
            d="m288.06,161.46c1.81,1.02,3.25,2.48,4.31,4.38,1.06,1.9,1.59,4.11,1.59,6.62s-.53,4.73-1.59,6.65c-1.06,1.92-2.5,3.39-4.31,4.42-1.81,1.03-3.83,1.55-6.04,1.55-3.2,0-5.6-.94-7.19-2.83v2.42h-8.13v-33.32h8.53v11.09c1.65-1.68,3.91-2.51,6.78-2.51,2.22,0,4.23.51,6.04,1.53Zm-4.15,15.29c.96-1.03,1.44-2.46,1.44-4.29s-.48-3.2-1.44-4.22c-.96-1.02-2.19-1.53-3.68-1.53s-2.72.51-3.68,1.53-1.44,2.42-1.44,4.22.48,3.26,1.44,4.29,2.19,1.55,3.68,1.55,2.72-.52,3.68-1.55Z" />
        <path class="cls-2"
            d="m314.96,178.08c.85-.33,1.71-.87,2.58-1.62l4.45,4.67c-2.31,2.63-5.75,3.95-10.33,3.95-2.84,0-5.34-.54-7.5-1.62s-3.82-2.57-5.01-4.49-1.77-4.09-1.77-6.51.58-4.54,1.75-6.44,2.78-3.39,4.83-4.47c2.05-1.08,4.35-1.62,6.89-1.62,2.37,0,4.53.49,6.49,1.46,1.96.97,3.53,2.4,4.69,4.27,1.17,1.87,1.75,4.09,1.75,6.67l-17.38,3.32c.93,1.95,2.77,2.92,5.52,2.92,1.17,0,2.18-.16,3.03-.49Zm-7.66-10.71c-.93.91-1.45,2.22-1.57,3.93l9.88-1.93c-.3-1.02-.87-1.83-1.71-2.45-.84-.61-1.84-.92-3.01-.92-1.47,0-2.66.46-3.59,1.37Z" />
        <path class="cls-2"
            d="m340.25,160.77c1.39-.55,2.99-.83,4.78-.83v7.68c-.78-.09-1.42-.14-1.93-.14-1.83,0-3.26.49-4.29,1.48s-1.55,2.5-1.55,4.54v11.18h-8.53v-24.34h8.13v2.92c.87-1.11,2-1.94,3.39-2.49Z" />
        <path class="cls-2"
            d="m375.16,151.36v33.32h-8.13v-2.42c-1.59,1.89-3.97,2.83-7.14,2.83-2.22,0-4.24-.52-6.06-1.55-1.83-1.03-3.27-2.51-4.33-4.42-1.06-1.92-1.59-4.13-1.59-6.65s.53-4.72,1.59-6.62c1.06-1.9,2.51-3.36,4.33-4.38,1.83-1.02,3.85-1.53,6.06-1.53,2.9,0,5.15.84,6.74,2.51v-11.09h8.53Zm-9.84,25.4c.96-1.03,1.44-2.46,1.44-4.29s-.47-3.2-1.42-4.22c-.94-1.02-2.16-1.53-3.66-1.53s-2.72.51-3.68,1.53-1.44,2.42-1.44,4.22.48,3.26,1.44,4.29,2.19,1.55,3.68,1.55,2.68-.52,3.64-1.55Z" />
        <path class="cls-2"
            d="m407.36,160.34v24.34h-8.13v-2.42c-1.59,1.89-3.98,2.83-7.19,2.83-2.22,0-4.23-.52-6.04-1.55-1.81-1.03-3.25-2.51-4.31-4.42-1.06-1.92-1.59-4.13-1.59-6.65s.53-4.72,1.59-6.62c1.06-1.9,2.5-3.36,4.31-4.38,1.81-1.02,3.82-1.53,6.04-1.53,2.88,0,5.14.84,6.78,2.51v-2.11h8.53Zm-9.84,16.41c.96-1.03,1.44-2.46,1.44-4.29s-.48-3.2-1.44-4.22-2.19-1.53-3.68-1.53-2.72.51-3.68,1.53-1.44,2.42-1.44,4.22.48,3.26,1.44,4.29,2.19,1.55,3.68,1.55,2.72-.52,3.68-1.55Z" />
        <path class="cls-2"
            d="m439.69,151.36v33.32h-8.13v-2.42c-1.59,1.89-3.97,2.83-7.14,2.83-2.22,0-4.24-.52-6.06-1.55-1.83-1.03-3.27-2.51-4.33-4.42-1.06-1.92-1.59-4.13-1.59-6.65s.53-4.72,1.59-6.62c1.06-1.9,2.51-3.36,4.33-4.38,1.83-1.02,3.85-1.53,6.06-1.53,2.9,0,5.15.84,6.74,2.51v-11.09h8.53Zm-9.84,25.4c.96-1.03,1.44-2.46,1.44-4.29s-.47-3.2-1.42-4.22c-.94-1.02-2.16-1.53-3.66-1.53s-2.72.51-3.68,1.53-1.44,2.42-1.44,4.22.48,3.26,1.44,4.29,2.19,1.55,3.68,1.55,2.68-.52,3.64-1.55Z" />
        <path class="cls-2"
            d="m462.22,178.08c.85-.33,1.71-.87,2.58-1.62l4.45,4.67c-2.31,2.63-5.75,3.95-10.33,3.95-2.84,0-5.34-.54-7.5-1.62s-3.82-2.57-5.01-4.49-1.77-4.09-1.77-6.51.58-4.54,1.75-6.44,2.78-3.39,4.83-4.47c2.05-1.08,4.35-1.62,6.89-1.62,2.37,0,4.53.49,6.49,1.46,1.96.97,3.53,2.4,4.69,4.27,1.17,1.87,1.75,4.09,1.75,6.67l-17.38,3.32c.93,1.95,2.77,2.92,5.52,2.92,1.17,0,2.18-.16,3.03-.49Zm-7.66-10.71c-.93.91-1.45,2.22-1.57,3.93l9.88-1.93c-.3-1.02-.87-1.83-1.71-2.45-.84-.61-1.84-.92-3.01-.92-1.47,0-2.66.46-3.59,1.37Z" />
    </g>
</svg>